<svg width="9" height="6" viewBox="0 0 9 6" fill="none" xmlns="http://www.w3.org/2000/svg">
<path d="M0.707703 0.78891C0.844422 0.78891 0.961609 0.837738 1.05927 0.935394L4.20575 4.08188L7.35223 0.935394C7.44989 0.837738 7.56708 0.78891 7.7038 0.78891C7.84052 0.78891 7.9577 0.835785 8.05536 0.929535C8.15692 1.02719 8.2077 1.14633 8.2077 1.28696C8.2077 1.42368 8.15887 1.54086 8.06122 1.63852L4.55731 5.14243C4.45966 5.24008 4.34247 5.28891 4.20575 5.28891C4.06903 5.28891 3.95184 5.24008 3.85419 5.14243L0.350281 1.63852C0.252625 1.54086 0.203797 1.42368 0.203797 1.28696C0.203797 1.14633 0.252625 1.02719 0.350281 0.929535C0.451844 0.835785 0.570984 0.78891 0.707703 0.78891Z" fill="white"/>
</svg>
