<svg width="16" height="16" viewBox="0 0 16 16" fill="none" xmlns="http://www.w3.org/2000/svg">
<path d="M2.53553 7.32742L7.29493 2.59933C7.67043 2.2263 8.17908 2.01576 8.7101 2.01356L11.9742 2.00002C13.0951 1.99537 14.0039 2.90099 13.9958 4.01444L13.9713 7.38579C13.9675 7.9112 13.7557 8.41402 13.3817 8.78556L8.69251 13.4439C7.90629 14.2249 6.63157 14.2249 5.84535 13.4439L2.53553 10.1558C1.74931 9.3748 1.74931 8.10847 2.53553 7.32742ZM10.2638 5.65827C10.5645 5.95702 11.0521 5.95702 11.3528 5.65827C11.6536 5.35952 11.6536 4.87514 11.3528 4.57639C11.0521 4.27764 10.5645 4.27764 10.2638 4.57639C9.96306 4.87514 9.96306 5.35952 10.2638 5.65827Z" fill="#FF7CA3"/>
</svg>
