<svg width="28" height="28" viewBox="0 0 28 28" fill="none" xmlns="http://www.w3.org/2000/svg">
<path fill-rule="evenodd" clip-rule="evenodd" d="M18.8536 18.8536C19.0488 18.6583 19.0488 18.3417 18.8536 18.1464L16.1599 15.4528C16.6865 14.7755 17 13.9244 17 13C17 10.7909 15.2091 9 13 9C10.7909 9 9 10.7909 9 13C9 15.2091 10.7909 17 13 17C13.9244 17 14.7755 16.6865 15.4528 16.1599L18.1464 18.8536C18.3417 19.0488 18.6583 19.0488 18.8536 18.8536ZM16 13C16 11.3431 14.6569 10 13 10C11.3431 10 10 11.3431 10 13C10 14.6569 11.3431 16 13 16C14.6569 16 16 14.6569 16 13Z" fill="white" fill-opacity="0.786"/>
</svg>
